<svg xmlns="http://www.w3.org/2000/svg" xmlns:xlink="http://www.w3.org/1999/xlink" viewBox="0 0 1000 1000"><defs><style>.cls-1{fill:none;}.cls-2{fill:#4f5d75;}.cls-3{clip-path:url(#clip-path);}.cls-4{fill:#bfc0c0;}.cls-5{fill:#ef8354;}.cls-6{fill:#2d3142;}.cls-7{fill:#fff;}.cls-8{clip-path:url(#clip-path-2);}</style><clipPath id="clip-path"><circle class="cls-1" cx="500" cy="500" r="450" transform="translate(-207.11 500) rotate(-45)"/></clipPath><clipPath id="clip-path-2"><circle class="cls-1" cx="500" cy="-520" r="450" transform="translate(514.14 201.25) rotate(-45)"/></clipPath></defs><title>10_fail</title><g id="_9_handover" data-name="9_handover"><circle class="cls-2" cx="500" cy="500" r="450" transform="translate(-207.11 500) rotate(-45)"/><g class="cls-3"><path class="cls-4" d="M644.76,381.14H585.67A112.81,112.81,0,0,0,523,400c-13.78,9.16-30.2,13.52-46.75,13.52H317.41V601.91h87.84c38.28,0,80.78,15.11,95.31,50.52,0,0,31.54,59.68,43.13,132.69,1.36,8.56,13.39,10.85,20.19,5.47a60.68,60.68,0,0,0,21.76-59.13l-9-46.36a10.23,10.23,0,0,1,10-12.17H675a58.8,58.8,0,0,0,58.8-58.8v-144A89,89,0,0,0,644.76,381.14Z"/><rect class="cls-5" x="10.04" y="393.58" width="325.44" height="228.29"/><polygon class="cls-6" points="335.48 393.58 302.94 393.58 258.18 621.87 335.48 621.87 335.48 393.58"/><rect class="cls-5" x="302.94" y="381.14" width="116.58" height="253.18"/><circle class="cls-7" cx="361.23" cy="580.69" r="18.23"/><path class="cls-4" d="M669.64,592.15H750a40.39,40.39,0,0,1,40.39,40.39v0A40.39,40.39,0,0,1,750,672.93H669.64a0,0,0,0,1,0,0V592.15A0,0,0,0,1,669.64,592.15Z"/><path class="cls-4" d="M694.88,521.77h76.91a40.39,40.39,0,0,1,40.39,40.39v0a40.39,40.39,0,0,1-40.39,40.39H694.88a3.47,3.47,0,0,1-3.47-3.47V525.24a3.47,3.47,0,0,1,3.47-3.47Z"/><path class="cls-4" d="M680.46,444.21h80.38a40.39,40.39,0,0,1,40.39,40.39v0A40.39,40.39,0,0,1,760.84,525H680.46a0,0,0,0,1,0,0V444.21A0,0,0,0,1,680.46,444.21Z"/><path class="cls-4" d="M644.69,381h76.24a38.32,38.32,0,0,1,38.32,38.32v0a38.32,38.32,0,0,1-38.32,38.32H644.69a0,0,0,0,1,0,0V381A0,0,0,0,1,644.69,381Z"/></g></g><g id="_6_launch" data-name="6_launch"><g class="cls-8"><rect class="cls-4" x="50" y="-253.99" width="945.7" height="258.06"/></g></g></svg>