<svg xmlns="http://www.w3.org/2000/svg" xmlns:xlink="http://www.w3.org/1999/xlink" viewBox="0 0 1000 1000"><defs><style>.cls-1{fill:none;}.cls-2{fill:#2d3142;}.cls-3,.cls-4,.cls-7{fill:#fff;}.cls-3{opacity:0.1;}.cls-4{opacity:0.2;}.cls-5{fill:#4f5d75;}.cls-6{fill:#bfc0c0;}.cls-8{clip-path:url(#clip-path);}.cls-9{fill:#ef8354;}</style><clipPath id="clip-path"><circle class="cls-1" cx="499.95" cy="498.16" r="450"/></clipPath></defs><title>1_idea</title><g id="_1_idea" data-name="1_idea"><circle class="cls-2" cx="499.95" cy="498.16" r="450"/><circle class="cls-3" cx="734.78" cy="287.15" r="133.48"/><circle class="cls-4" cx="734.78" cy="287.15" r="103.87"/><rect class="cls-5" x="674.5" y="400.23" width="120.57" height="73.2"/><rect class="cls-6" x="662.78" y="426.53" width="144" height="20.6"/><path class="cls-7" d="M806.78,285.83a72,72,0,0,0-76.13-71.88c-35.21,2-64.35,30-67.56,65.14A71.64,71.64,0,0,0,680.42,333c9.93,11.41,15.95,25.68,15.95,40.8v17.17h76.82V374.87c0-15,5-29.8,15.1-40.95A71.55,71.55,0,0,0,806.78,285.83Z"/><g class="cls-8"><path class="cls-5" d="M228.84,651.9H557.53A137.36,137.36,0,0,1,694.9,789.26V950a0,0,0,0,1,0,0H91.48a0,0,0,0,1,0,0V789.26A137.36,137.36,0,0,1,228.84,651.9Z"/><rect class="cls-7" x="268.76" y="651.9" width="248.85" height="298.07"/><path class="cls-6" d="M450.69,562.18h-115a3.17,3.17,0,0,0-3.17,3.17V715.54l60.67,131.54,60.67-131.54V565.35A3.17,3.17,0,0,0,450.69,562.18Z"/><path class="cls-6" d="M380.33,410.59H469.8a47.81,47.81,0,0,1,47.81,47.81v89.47a47.81,47.81,0,0,1-47.81,47.81H332.51a0,0,0,0,1,0,0V458.41A47.81,47.81,0,0,1,380.33,410.59Z"/><polygon class="cls-2" points="381.76 595.69 453.86 595.69 453.86 613.14 381.76 595.69 381.76 595.69"/><path class="cls-9" d="M332.51,361.6H493.79a49,49,0,0,1,49,49v0a49,49,0,0,1-49,49H332.51a0,0,0,0,1,0,0v-98A0,0,0,0,1,332.51,361.6Z"/><path class="cls-9" d="M329.73,361.6h2.79a0,0,0,0,1,0,0V651.9a0,0,0,0,1,0,0h-2.79a61,61,0,0,1-61-61V422.57a61,61,0,0,1,61-61Z"/><path class="cls-9" d="M332.51,432.46h49.24a0,0,0,0,1,0,0V477a49.24,49.24,0,0,1-49.24,49.24h0a0,0,0,0,1,0,0V432.46A0,0,0,0,1,332.51,432.46Z"/><path class="cls-9" d="M453.86,595.69h0a63.75,63.75,0,0,1,63.75,63.75V800.93a0,0,0,0,1,0,0h0a63.75,63.75,0,0,1-63.75-63.75V595.69A0,0,0,0,1,453.86,595.69Z"/><rect class="cls-5" x="684.15" y="670.11" width="109.14" height="276.23"/><path class="cls-6" d="M739.77,596.36H758a35.26,35.26,0,0,1,35.26,35.26v11.59a26.91,26.91,0,0,1-26.91,26.91H704.51a0,0,0,0,1,0,0v-38.5a35.26,35.26,0,0,1,35.26-35.26Z"/><path class="cls-6" d="M717.43,532.29h0a12.92,12.92,0,0,1,12.92,12.92v86.4a0,0,0,0,1,0,0H704.51a0,0,0,0,1,0,0v-86.4A12.92,12.92,0,0,1,717.43,532.29Z"/></g></g></svg>