<svg xmlns="http://www.w3.org/2000/svg" xmlns:xlink="http://www.w3.org/1999/xlink" viewBox="0 0 1000 1000"><defs><style>.cls-1{fill:none;}.cls-2{clip-path:url(#clip-path);}.cls-3{fill:#fff;}.cls-4{fill:#ef8354;}.cls-5{fill:#bfc0c0;}.cls-6{fill:#2d3142;}.cls-7{fill:#4f5d75;}.cls-8{clip-path:url(#clip-path-2);}</style><clipPath id="clip-path"><circle class="cls-1" cx="500" cy="1520" r="450" transform="translate(-928.36 798.75) rotate(-45)"/></clipPath><clipPath id="clip-path-2"><circle class="cls-1" cx="500" cy="500" r="450"/></clipPath></defs><title>2_explore</title><g id="_6_launch" data-name="6_launch"><g class="cls-2"><rect class="cls-3" x="459.29" y="972.65" width="385.63" height="223.52" transform="translate(-432.31 1736.52) rotate(-90)"/></g></g><g id="_2_explore" data-name="2_explore"><circle class="cls-4" cx="500" cy="500" r="450"/><rect class="cls-5" x="419.48" y="580.13" width="161.03" height="161.03"/><rect class="cls-6" x="212.45" y="258" width="575.09" height="402.65" rx="68.12" ry="68.12"/><path class="cls-3" d="M212.45,563.64v32.12a64.89,64.89,0,0,0,64.89,64.89H722.66a64.89,64.89,0,0,0,64.89-64.89V563.64Z"/><rect class="cls-7" x="266.93" y="311.92" width="466.14" height="215.28"/><circle class="cls-6" cx="500" cy="611.64" r="18.9"/><rect class="cls-3" x="376.13" y="741.16" width="247.74" height="35.53" rx="17.77" ry="17.77"/><rect class="cls-3" x="314.02" y="348.59" width="80.92" height="126.68"/><circle class="cls-6" cx="623.87" cy="302.48" r="73.32"/><circle class="cls-4" cx="500" cy="419.56" r="40.27"/><circle class="cls-3" cx="623.87" cy="288.99" r="73.32"/><circle class="cls-4" cx="623.87" cy="288.99" r="55.98"/><circle class="cls-3" cx="623.87" cy="288.99" r="35.85"/><circle class="cls-4" cx="623.87" cy="288.99" r="14.61"/><polygon class="cls-5" points="631.94 405.7 584.04 501.51 679.85 501.51 631.94 405.7"/><g class="cls-8"><rect class="cls-5" x="145.11" y="776.7" width="709.78" height="186.06"/></g></g></svg>