<svg xmlns="http://www.w3.org/2000/svg" viewBox="0 0 1000 1000"><defs><style>.cls-1{fill:#bfc0c0;}.cls-2{fill:#2d3142;}.cls-3{fill:#ef8354;}.cls-4,.cls-5{fill:none;stroke:#fff;stroke-miterlimit:10;stroke-width:26.97px;}.cls-5{stroke-dasharray:34.56 34.56;}.cls-6{fill:#4f5d75;}</style></defs><title>3_build</title><g id="_3_build" data-name="3_build"><circle class="cls-1" cx="499.89" cy="500" r="450"/><rect class="cls-2" x="559.65" y="238.08" width="390.46" height="149.75"/><rect class="cls-2" x="622.64" y="202.11" width="56.94" height="35.96"/><rect class="cls-2" x="830.18" y="202.11" width="56.94" height="35.96" transform="translate(1717.29 440.19) rotate(180)"/><rect class="cls-2" x="726.41" y="202.11" width="56.94" height="35.96"/><rect class="cls-3" x="399.31" y="238.08" width="390.46" height="149.75"/><rect class="cls-3" x="462.3" y="202.11" width="56.94" height="35.96"/><rect class="cls-3" x="669.84" y="202.11" width="56.94" height="35.96" transform="translate(1396.62 440.19) rotate(180)"/><rect class="cls-3" x="566.07" y="202.11" width="56.94" height="35.96"/><line class="cls-4" x1="499.89" y1="50" x2="499.89" y2="67.98"/><line class="cls-5" x1="499.89" y1="102.54" x2="499.89" y2="914.74"/><line class="cls-4" x1="499.89" y1="932.02" x2="499.89" y2="950"/><rect class="cls-2" x="360.89" y="561.04" width="390.46" height="149.75"/><rect class="cls-2" x="423.88" y="525.08" width="56.94" height="35.96"/><rect class="cls-2" x="631.41" y="525.08" width="56.94" height="35.96" transform="translate(1319.77 1086.12) rotate(180)"/><rect class="cls-2" x="527.64" y="525.08" width="56.94" height="35.96"/><rect class="cls-6" x="200.55" y="561.04" width="390.46" height="149.75"/><rect class="cls-6" x="263.54" y="525.08" width="56.94" height="35.96"/><rect class="cls-6" x="471.07" y="525.08" width="56.94" height="35.96" transform="translate(999.09 1086.12) rotate(180)"/><rect class="cls-6" x="367.31" y="525.08" width="56.94" height="35.96"/></g></svg>