<svg xmlns="http://www.w3.org/2000/svg" viewBox="0 0 1000 1000"><defs><style>.cls-1{fill:#2d3142;}.cls-2,.cls-3{fill:none;stroke-miterlimit:10;stroke-width:26.97px;}.cls-2{stroke:#bfc0c0;}.cls-3{stroke:#ef8354;}.cls-4{fill:#fff;}.cls-5{fill:#4f5d75;}.cls-6{fill:#bfc0c0;}</style></defs><title>4_revise</title><g id="_4_revise" data-name="4_revise"><circle class="cls-1" cx="500" cy="500" r="450" transform="translate(-207.11 500) rotate(-45)"/><path class="cls-2" d="M207.16,554.06a297.2,297.2,0,0,0,16.21,56.3"/><path class="cls-2" d="M216.5,408.74a298.4,298.4,0,0,0-13.82,74.85"/><path class="cls-2" d="M739.15,322.53a300.21,300.21,0,0,0-28.6-33.08c-116.28-116.28-304.81-116.28-421.1,0a298,298,0,0,0-49.78,65.86"/><path class="cls-3" d="M796.84,476.54a296.56,296.56,0,0,0-57.7-154"/><path class="cls-3" d="M783.89,590a298.06,298.06,0,0,0,11.73-54.28"/><path class="cls-3" d="M421.95,787.4c99.58,26.94,210.42,1.33,288.6-76.85a299.1,299.1,0,0,0,38.16-46.71"/><polyline class="cls-3" points="487.64 719.61 421.5 785.74 487.64 851.88"/><rect class="cls-4" x="501.47" y="136.19" width="144.72" height="579.68" transform="translate(469.32 -280.97) rotate(45)"/><rect class="cls-5" x="563.23" y="161.77" width="72.36" height="579.68" transform="translate(494.9 -291.57) rotate(45)"/><rect class="cls-6" x="542.57" y="136.19" width="62.5" height="579.68" transform="translate(469.32 -280.97) rotate(45)"/><rect class="cls-6" x="713.97" y="202.85" width="144.72" height="21.36" transform="translate(381.3 -493.47) rotate(45)"/><rect class="cls-5" x="729.07" y="187.75" width="144.72" height="21.36" transform="translate(375.04 -508.58) rotate(45)"/><rect class="cls-6" x="744.18" y="172.64" width="144.72" height="21.36" transform="translate(368.79 -523.68) rotate(45)"/><path class="cls-4" d="M813.28,108.48h77.36a33.68,33.68,0,0,1,33.68,33.68v45.16a0,0,0,0,1,0,0H779.6a0,0,0,0,1,0,0V142.16A33.68,33.68,0,0,1,813.28,108.48Z" transform="translate(354.11 -559.11) rotate(45)"/><path class="cls-6" d="M907.19,147.38,879.83,120l-55.75,55.75,51.17,51.17L907.19,195A33.68,33.68,0,0,0,907.19,147.38Z"/><path class="cls-4" d="M839.59,108.48h24.73a23.81,23.81,0,0,1,23.81,23.81v55a0,0,0,0,1,0,0H815.78a0,0,0,0,1,0,0v-55A23.81,23.81,0,0,1,839.59,108.48Z" transform="translate(354.11 -559.11) rotate(45)"/><polygon class="cls-4" points="368.87 630.98 317.71 579.82 289.5 710.36 420.04 682.15 368.87 630.98"/><polygon class="cls-5" points="301.61 654.34 289.5 710.36 345.52 698.25 323.56 676.3 301.61 654.34"/><path class="cls-4" d="M391,608.89a31.25,31.25,0,0,0-44.19,0L391,653.08A31.25,31.25,0,0,0,391,608.89Z"/><path class="cls-4" d="M354.41,572.33c-8.07-8.07-24.5-4.71-36.7,7.49L346.92,609C359.12,596.83,362.48,580.39,354.41,572.33Z"/><path class="cls-4" d="M427.67,645.59c-8.07-8.07-24.5-4.71-36.7,7.49l29.21,29.21C432.38,670.09,435.74,653.66,427.67,645.59Z"/></g></svg>