<svg xmlns="http://www.w3.org/2000/svg" viewBox="0 0 1000 1000"><defs><style>.cls-1{fill:#4f5d75;}.cls-2{fill:#fff;}.cls-3{fill:#bfc0c0;}.cls-4{fill:#ef8354;}.cls-5{fill:#2d3142;}</style></defs><title>5_analysis</title><g id="_5_analysis" data-name="5_analysis"><circle class="cls-1" cx="511.1" cy="500" r="403.82" transform="translate(-203.86 507.85) rotate(-45)"/><path class="cls-2" d="M165.6,521.39H442.23A115.6,115.6,0,0,1,557.83,637V772.24a0,0,0,0,1,0,0H50a0,0,0,0,1,0,0V637A115.6,115.6,0,0,1,165.6,521.39Z"/><rect class="cls-3" x="129.3" y="663.19" width="77.27" height="13.46"/><rect class="cls-4" x="237.3" y="521.39" width="147.49" height="250.85"/><path class="cls-3" d="M262.65,445.89h96.79a2.67,2.67,0,0,1,2.67,2.67V523.9A51.06,51.06,0,0,1,311,575h0A51.06,51.06,0,0,1,260,523.9V448.56A2.67,2.67,0,0,1,262.65,445.89Z"/><path class="cls-3" d="M300.22,318.31h75.3a40.24,40.24,0,0,1,40.24,40.24v75.3a40.24,40.24,0,0,1-40.24,40.24H260a0,0,0,0,1,0,0V358.55A40.24,40.24,0,0,1,300.22,318.31Z"/><polygon class="cls-5" points="301.43 474.09 362.11 474.09 362.11 488.77 301.43 474.09 301.43 474.09"/><path class="cls-5" d="M318.48,298h5a0,0,0,0,1,0,0V413.9a0,0,0,0,1,0,0H260a0,0,0,0,1,0,0V356.52A58.5,58.5,0,0,1,318.48,298Z"/><path class="cls-5" d="M353.86,266.34h61.91a0,0,0,0,1,0,0v40.23a23.13,23.13,0,0,1-23.13,23.13H323.45a0,0,0,0,1,0,0V296.75A30.41,30.41,0,0,1,353.86,266.34Z"/><path class="cls-3" d="M314.13,377.2h9.32a0,0,0,0,1,0,0v36.7a0,0,0,0,1,0,0h-3.86a18.17,18.17,0,0,1-18.17-18.17V389.9A12.7,12.7,0,0,1,314.13,377.2Z"/><rect class="cls-5" x="557.37" y="667.11" width="254.29" height="97.53"/><rect class="cls-5" x="598.39" y="643.69" width="37.09" height="23.42"/><rect class="cls-5" x="733.55" y="643.69" width="37.09" height="23.42" transform="translate(1504.2 1310.79) rotate(180)"/><rect class="cls-5" x="665.97" y="643.69" width="37.09" height="23.42"/><rect class="cls-1" x="452.94" y="667.11" width="254.29" height="97.53"/><rect class="cls-1" x="493.97" y="643.69" width="37.09" height="23.42"/><rect class="cls-1" x="629.13" y="643.69" width="37.09" height="23.42" transform="translate(1295.35 1310.79) rotate(180)"/><rect class="cls-1" x="561.55" y="643.69" width="37.09" height="23.42"/><rect class="cls-5" x="695.71" y="571.94" width="254.29" height="97.53"/><rect class="cls-5" x="736.73" y="548.51" width="37.09" height="23.42"/><rect class="cls-5" x="871.89" y="548.51" width="37.09" height="23.42" transform="translate(1780.87 1120.45) rotate(180)"/><rect class="cls-5" x="804.31" y="548.51" width="37.09" height="23.42"/><rect class="cls-4" x="591.28" y="571.94" width="254.29" height="97.53"/><rect class="cls-4" x="632.3" y="548.51" width="37.09" height="23.42"/><rect class="cls-4" x="767.47" y="548.51" width="37.09" height="23.42" transform="translate(1572.02 1120.45) rotate(180)"/><rect class="cls-4" x="699.89" y="548.51" width="37.09" height="23.42"/><circle class="cls-2" cx="674.68" cy="355.96" r="89.93"/><rect class="cls-4" x="638.32" y="320.69" width="158.72" height="28.8" transform="translate(1462.1 64.56) rotate(135)"/><rect class="cls-1" x="655.2" y="361.45" width="43.45" height="28.8" transform="translate(1421.35 162.95) rotate(135)"/><rect class="cls-4" x="606.9" y="345.58" width="88.22" height="29.06" transform="translate(445.31 -354.86) rotate(45)"/><path class="cls-3" d="M206.09,764.64h0q9.3,10.7,19.46,20.9c157.7,157.7,413.38,157.7,571.08,0q10.18-10.18,19.47-20.9Z"/></g></svg>