<svg xmlns="http://www.w3.org/2000/svg" xmlns:xlink="http://www.w3.org/1999/xlink" viewBox="0 0 1000 1000"><defs><style>.cls-1{fill:none;}.cls-2{fill:#2d3142;}.cls-3{clip-path:url(#clip-path);}.cls-4{fill:#4f5d75;}.cls-5{fill:#ef8354;}.cls-6{fill:#bfc0c0;}.cls-7{fill:#fff;}</style><clipPath id="clip-path"><circle class="cls-1" cx="500" cy="500" r="450" transform="translate(-207.11 500) rotate(-45)"/></clipPath></defs><title>6_launch</title><g id="_6_launch" data-name="6_launch"><circle class="cls-2" cx="500" cy="500" r="450" transform="translate(-207.11 500) rotate(-45)"/><g class="cls-3"><rect class="cls-4" x="-1.96" y="345.03" width="440.94" height="121.77"/><rect class="cls-2" x="20.41" y="369.34" width="11.14" height="73.15"/><rect class="cls-2" x="64.96" y="369.34" width="11.14" height="73.15" transform="translate(141.06 811.82) rotate(180)"/><rect class="cls-2" x="42.69" y="369.34" width="11.14" height="73.15"/><rect class="cls-2" x="109.51" y="369.34" width="11.14" height="73.15" transform="translate(230.16 811.82) rotate(180)"/><rect class="cls-2" x="87.24" y="369.34" width="11.14" height="73.15" transform="translate(185.61 811.82) rotate(180)"/><rect class="cls-2" x="253.63" y="319.31" width="8.13" height="238.23" transform="translate(-180.73 696.12) rotate(-90)"/><rect class="cls-2" x="253.63" y="286.8" width="8.13" height="238.23" transform="translate(663.61 148.22) rotate(90)"/><rect class="cls-2" x="253.63" y="303.05" width="8.13" height="238.23" transform="translate(-164.47 679.86) rotate(-90)"/><rect class="cls-2" x="253.63" y="254.28" width="8.13" height="238.23" transform="translate(631.09 115.7) rotate(90)"/><rect class="cls-2" x="253.63" y="270.54" width="8.13" height="238.23" transform="translate(647.35 131.96) rotate(90)"/><rect class="cls-5" x="376.81" y="369.34" width="24.38" height="24.38"/><rect class="cls-6" x="376.81" y="418.1" width="24.38" height="24.38"/><rect class="cls-4" x="-1.96" y="50" width="440.94" height="121.77"/><rect class="cls-2" x="20.41" y="74.31" width="11.14" height="73.15"/><rect class="cls-2" x="64.96" y="74.31" width="11.14" height="73.15" transform="translate(141.06 221.77) rotate(180)"/><rect class="cls-2" x="42.69" y="74.31" width="11.14" height="73.15"/><rect class="cls-2" x="109.51" y="74.31" width="11.14" height="73.15" transform="translate(230.16 221.77) rotate(180)"/><rect class="cls-2" x="87.24" y="74.31" width="11.14" height="73.15" transform="translate(185.61 221.77) rotate(180)"/><rect class="cls-2" x="253.63" y="24.28" width="8.13" height="238.23" transform="translate(114.3 401.09) rotate(-90)"/><rect class="cls-2" x="253.63" y="-8.23" width="8.13" height="238.23" transform="translate(368.58 -146.81) rotate(90)"/><rect class="cls-2" x="253.63" y="8.02" width="8.13" height="238.23" transform="translate(130.56 384.83) rotate(-90)"/><rect class="cls-2" x="253.63" y="-40.74" width="8.13" height="238.23" transform="translate(336.07 -179.32) rotate(90)"/><rect class="cls-2" x="253.63" y="-24.49" width="8.13" height="238.23" transform="translate(352.32 -163.07) rotate(90)"/><rect class="cls-5" x="376.81" y="74.31" width="24.38" height="24.38"/><rect class="cls-6" x="376.81" y="123.07" width="24.38" height="24.38"/><rect class="cls-4" x="-1.96" y="196.46" width="440.94" height="121.77"/><rect class="cls-2" x="20.41" y="220.77" width="11.14" height="73.15"/><rect class="cls-2" x="64.96" y="220.77" width="11.14" height="73.15" transform="translate(141.06 514.69) rotate(180)"/><rect class="cls-2" x="42.69" y="220.77" width="11.14" height="73.15"/><rect class="cls-2" x="109.51" y="220.77" width="11.14" height="73.15" transform="translate(230.16 514.69) rotate(180)"/><rect class="cls-2" x="87.24" y="220.77" width="11.14" height="73.15" transform="translate(185.61 514.69) rotate(180)"/><rect class="cls-2" x="253.63" y="170.74" width="8.13" height="238.23" transform="translate(-32.16 547.55) rotate(-90)"/><rect class="cls-2" x="253.63" y="138.23" width="8.13" height="238.23" transform="translate(515.04 -0.35) rotate(90)"/><rect class="cls-2" x="253.63" y="154.49" width="8.13" height="238.23" transform="translate(-15.91 531.3) rotate(-90)"/><rect class="cls-2" x="253.63" y="105.72" width="8.13" height="238.23" transform="translate(482.53 -32.86) rotate(90)"/><rect class="cls-2" x="253.63" y="121.98" width="8.13" height="238.23" transform="translate(498.79 -16.6) rotate(90)"/><rect class="cls-5" x="376.81" y="220.77" width="24.38" height="24.38"/><rect class="cls-6" x="376.81" y="269.54" width="24.38" height="24.38"/><rect class="cls-4" x="-1.96" y="493.59" width="440.94" height="121.77"/><rect class="cls-2" x="20.41" y="517.9" width="11.14" height="73.15"/><rect class="cls-2" x="64.96" y="517.9" width="11.14" height="73.15" transform="translate(141.06 1108.95) rotate(180)"/><rect class="cls-2" x="42.69" y="517.9" width="11.14" height="73.15"/><rect class="cls-2" x="109.51" y="517.9" width="11.14" height="73.15" transform="translate(230.16 1108.95) rotate(180)"/><rect class="cls-2" x="87.24" y="517.9" width="11.14" height="73.15" transform="translate(185.61 1108.95) rotate(180)"/><rect class="cls-2" x="253.63" y="467.87" width="8.13" height="238.23" transform="translate(-329.29 844.68) rotate(-90)"/><rect class="cls-2" x="253.63" y="435.36" width="8.13" height="238.23" transform="translate(812.17 296.78) rotate(90)"/><rect class="cls-2" x="253.63" y="451.62" width="8.13" height="238.23" transform="translate(-313.04 828.43) rotate(-90)"/><rect class="cls-2" x="253.63" y="402.85" width="8.13" height="238.23" transform="translate(779.66 264.27) rotate(90)"/><rect class="cls-2" x="253.63" y="419.1" width="8.13" height="238.23" transform="translate(795.91 280.52) rotate(90)"/><rect class="cls-5" x="376.81" y="517.9" width="24.38" height="24.38"/><rect class="cls-6" x="376.81" y="566.67" width="24.38" height="24.38"/><rect class="cls-4" x="-1.96" y="642.16" width="440.94" height="121.77"/><rect class="cls-2" x="20.41" y="666.46" width="11.14" height="73.15"/><rect class="cls-2" x="64.96" y="666.46" width="11.14" height="73.15" transform="translate(141.06 1406.08) rotate(180)"/><rect class="cls-2" x="42.69" y="666.46" width="11.14" height="73.15"/><rect class="cls-2" x="109.51" y="666.46" width="11.14" height="73.15" transform="translate(230.16 1406.08) rotate(180)"/><rect class="cls-2" x="87.24" y="666.46" width="11.14" height="73.15" transform="translate(185.61 1406.08) rotate(180)"/><rect class="cls-2" x="253.63" y="616.44" width="8.13" height="238.23" transform="translate(-477.86 993.25) rotate(-90)"/><rect class="cls-2" x="253.63" y="583.92" width="8.13" height="238.23" transform="translate(960.73 445.34) rotate(90)"/><rect class="cls-2" x="253.63" y="600.18" width="8.13" height="238.23" transform="translate(-461.6 976.99) rotate(-90)"/><rect class="cls-2" x="253.63" y="551.41" width="8.13" height="238.23" transform="translate(928.22 412.83) rotate(90)"/><rect class="cls-2" x="253.63" y="567.67" width="8.13" height="238.23" transform="translate(944.48 429.09) rotate(90)"/><rect class="cls-5" x="376.81" y="666.46" width="24.38" height="24.38"/><rect class="cls-6" x="376.81" y="715.23" width="24.38" height="24.38"/><rect class="cls-6" x="50" y="766.01" width="945.7" height="258.06"/><path class="cls-6" d="M681.86,257.23H620.11a82,82,0,0,0-82,82V481.92l143.36.69a82,82,0,0,0,82.4-82V339.24A82,82,0,0,0,681.86,257.23Z"/><path class="cls-6" d="M538.1,479.31h59.72a0,0,0,0,1,0,0V608.57A29.86,29.86,0,0,1,568,638.43h0a29.86,29.86,0,0,1-29.86-29.86V479.31A0,0,0,0,1,538.1,479.31Z"/><path class="cls-2" d="M546,351.75h0a36.17,36.17,0,0,0,9.86,24.82l59.91,63.49a32.16,32.16,0,0,0,46.94-1.56c11.3-12.87,9.87-32.58-2.24-44.69l-19.26-19.26a2.43,2.43,0,0,1,1.72-4.16h77.88c36.94-.39,55.93-44.62,31.9-72.68A81.75,81.75,0,0,0,690.43,269H628.68A83,83,0,0,0,546,351.75Z"/><path class="cls-6" d="M538.1,339.94h0A36.17,36.17,0,0,0,548,364.76l59.91,63.49a32.16,32.16,0,0,0,46.94-1.56c11.3-12.87,9.87-32.58-2.24-44.69l-19.26-19.26a2.43,2.43,0,0,1,1.72-4.16h77.88c36.94-.39,55.93-44.62,31.9-72.68a81.75,81.75,0,0,0-62.26-28.66H620.81A83,83,0,0,0,538.1,339.94Z"/><rect class="cls-7" x="459.29" y="-47.35" width="385.63" height="223.52" transform="translate(587.69 716.52) rotate(-90)"/><ellipse class="cls-5" cx="567.96" cy="679.62" rx="61.76" ry="22.15"/><rect class="cls-2" x="462.3" y="800.9" width="211.32" height="53.82"/><rect class="cls-4" x="462.3" y="723.93" width="211.32" height="76.97"/><path class="cls-5" d="M568,713.59c34.11,0,61.76-9.92,61.76-22.15V754h0v2.44h-.39c-3.39,11.09-29.56,19.71-61.36,19.71s-58-8.63-61.36-19.71h-.39v-65C506.21,703.67,533.86,713.59,568,713.59Z"/></g><path class="cls-7" d="M770.2,532.92c0-6.84-12.38-32.92-12.38-32.92s-12.38,26.08-12.38,32.92a12.38,12.38,0,0,0,24.75,0Z"/><path class="cls-7" d="M692.64,597.47c0-6.84-12.38-32.92-12.38-32.92s-12.38,26.08-12.38,32.92a12.38,12.38,0,0,0,24.75,0Z"/><path class="cls-7" d="M770.2,671.82c0-6.84-12.38-32.92-12.38-32.92S745.44,665,745.44,671.82a12.38,12.38,0,1,0,24.75,0Z"/></g></svg>