<svg xmlns="http://www.w3.org/2000/svg" xmlns:xlink="http://www.w3.org/1999/xlink" viewBox="0 0 1000 1000"><defs><style>.cls-1{fill:none;}.cls-2{clip-path:url(#clip-path);}.cls-3{fill:#4f5d75;}.cls-4{fill:#2d3142;}.cls-5{fill:#fff;}.cls-6{fill:#ef8354;}.cls-7{fill:#bfc0c0;}</style><clipPath id="clip-path"><circle class="cls-1" cx="500" cy="500" r="450" transform="translate(-207.11 500) rotate(-45)"/></clipPath></defs><title>8_intake</title><g id="_10_fail" data-name="10_fail"><g class="cls-2"><circle class="cls-3" cx="500" cy="500" r="450" transform="translate(-207.11 500) rotate(-45)"/><path class="cls-4" d="M85.75,676h0A448.71,448.71,0,0,0,181.8,818.2c175.74,175.74,460.66,175.74,636.4,0A448.69,448.69,0,0,0,914.25,676Z"/><circle class="cls-4" cx="663.16" cy="656.49" r="18.4"/><rect class="cls-4" x="663.16" y="638.02" width="10.36" height="36.87" transform="translate(1336.68 1312.91) rotate(-180)"/><circle class="cls-4" cx="672.78" cy="656.49" r="18.4"/><circle class="cls-4" cx="769.92" cy="656.49" r="18.4"/><rect class="cls-4" x="769.92" y="638.02" width="10.36" height="36.87" transform="translate(1550.2 1312.91) rotate(-180)"/><rect class="cls-5" x="810.92" y="503.71" width="153.89" height="132.17" transform="translate(1775.73 1139.6) rotate(-180)"/><rect class="cls-4" x="699.35" y="635.89" width="239.05" height="20.6"/><rect class="cls-4" x="699.35" y="503.71" width="111.57" height="152.77"/><rect class="cls-6" x="699.35" y="560.13" width="111.57" height="96.36"/><polygon class="cls-7" points="755.13 560.13 643.56 560.13 632.95 619.68 744.52 619.68 755.13 560.13"/><polygon class="cls-4" points="740.58 573.36 653.4 573.36 647.18 608.31 734.35 608.31 740.58 573.36"/><rect class="cls-7" x="632.95" y="619.68" width="111.61" height="36.81"/><rect class="cls-5" x="720.71" y="628.6" width="10.14" height="14.58"/><rect class="cls-5" x="646.67" y="628.6" width="10.14" height="14.58"/><rect class="cls-4" x="667.46" y="628.61" width="44.37" height="14.55"/><polygon class="cls-4" points="799.83 608.31 759.25 608.31 765.28 573.36 799.83 573.36 799.83 608.31"/><circle class="cls-4" cx="779.54" cy="656.49" r="18.4"/><circle class="cls-5" cx="779.54" cy="656.49" r="8.78"/><circle class="cls-4" cx="895.12" cy="656.49" r="18.4"/><rect class="cls-4" x="895.12" y="638.02" width="10.36" height="36.87" transform="translate(1800.6 1312.91) rotate(-180)"/><circle class="cls-4" cx="904.74" cy="656.49" r="18.4"/><circle class="cls-5" cx="904.74" cy="656.49" r="8.78"/><polygon class="cls-4" points="523.15 233.32 496.31 233.32 469.48 233.32 458.35 422.27 496.31 422.27 534.27 422.27 523.15 233.32"/><polygon class="cls-4" points="405.42 233.32 378.59 233.32 351.75 233.32 340.63 422.27 378.59 422.27 416.55 422.27 405.42 233.32"/><polygon class="cls-4" points="291.55 233.32 264.71 233.32 237.88 233.32 226.75 422.27 264.71 422.27 302.67 422.27 291.55 233.32"/><rect class="cls-7" x="168.46" y="375.48" width="325.94" height="300.52"/><rect class="cls-4" x="73.93" y="494.28" width="94.53" height="181.72"/><rect class="cls-4" x="236.9" y="494.28" width="94.53" height="181.72"/><polygon class="cls-5" points="236.9 494.28 73.93 552.7 73.93 676 236.9 676 236.9 494.28"/><rect class="cls-4" x="133.17" y="585.14" width="44.49" height="22.25"/><polygon class="cls-5" points="399.87 494.28 236.9 552.7 236.9 676 399.87 676 399.87 494.28"/><rect class="cls-4" x="296.14" y="585.14" width="44.49" height="22.25"/><rect class="cls-4" x="309.18" y="422.27" width="44.49" height="22.25"/><rect class="cls-4" x="220.22" y="422.27" width="44.49" height="22.25"/><rect class="cls-4" x="398.15" y="422.27" width="44.49" height="22.25" transform="translate(840.79 866.8) rotate(180)"/><rect class="cls-4" x="399.87" y="494.28" width="94.53" height="181.72"/><rect class="cls-4" x="494.4" y="375.48" width="94.53" height="300.52"/><rect class="cls-6" x="449.9" y="585.14" width="88.99" height="90.86"/><polygon class="cls-5" points="73.93 494.28 -89.04 552.7 -89.04 676 73.93 676 73.93 494.28"/><rect class="cls-4" x="-29.8" y="585.14" width="44.49" height="22.25"/><path class="cls-7" d="M404.32,140.5a46.41,46.41,0,0,0-46.41,46.41h92.81A46.41,46.41,0,0,0,404.32,140.5Z"/><path class="cls-7" d="M465.78,156.6a30.31,30.31,0,0,0-30.31,30.31h60.61A30.31,30.31,0,0,0,465.78,156.6Z"/><path class="cls-7" d="M295.85,106.93a80,80,0,0,0-80,80h160A80,80,0,0,0,295.85,106.93Z"/><path class="cls-7" d="M464,186.91h32.13a0,0,0,0,1,0,0V219a0,0,0,0,1,0,0h0A32.13,32.13,0,0,1,464,186.91v0A0,0,0,0,1,464,186.91Z"/></g></g></svg>