<svg xmlns="http://www.w3.org/2000/svg" xmlns:xlink="http://www.w3.org/1999/xlink" viewBox="0 0 1000 1000"><defs><style>.cls-1{fill:none;}.cls-2{clip-path:url(#clip-path);}.cls-3{fill:#2d3142;}.cls-4{fill:#4f5d75;}.cls-5{fill:#fff;}.cls-6{fill:#bfc0c0;}.cls-7{fill:#ef8354;}</style><clipPath id="clip-path"><circle class="cls-1" cx="488.46" cy="500" r="406.64" transform="translate(-210.49 491.84) rotate(-45)"/></clipPath></defs><title>9_handover</title><g id="_8_intake" data-name="8_intake"><g class="cls-2"><circle class="cls-3" cx="488.46" cy="500" r="406.64" transform="translate(-210.49 491.84) rotate(-45)"/><path class="cls-4" d="M177.47,429.68H398.72a92.47,92.47,0,0,1,92.47,92.47V630.32a0,0,0,0,1,0,0H85a0,0,0,0,1,0,0V522.15A92.47,92.47,0,0,1,177.47,429.68Z"/><rect class="cls-5" x="204.34" y="429.68" width="167.51" height="200.64"/><path class="cls-6" d="M326.8,369.29H249.38a2.13,2.13,0,0,0-2.13,2.13v101.1l40.84,88.54,40.84-88.54V371.43A2.13,2.13,0,0,0,326.8,369.29Z"/><path class="cls-6" d="M279.44,267.25h60.23a32.19,32.19,0,0,1,32.19,32.19v60.23a32.19,32.19,0,0,1-32.19,32.19H247.25a0,0,0,0,1,0,0V299.44a32.19,32.19,0,0,1,32.19-32.19Z"/><polygon class="cls-3" points="280.4 391.85 328.93 391.85 328.93 403.59 280.4 391.85 280.4 391.85"/><path class="cls-7" d="M247.25,234.27H355.81a33,33,0,0,1,33,33v0a33,33,0,0,1-33,33H247.25a0,0,0,0,1,0,0v-66a0,0,0,0,1,0,0Z"/><path class="cls-7" d="M245.38,234.27h1.87a0,0,0,0,1,0,0V429.68a0,0,0,0,1,0,0h-1.87a41,41,0,0,1-41-41V275.31a41,41,0,0,1,41-41Z"/><path class="cls-7" d="M247.25,282H280.4a0,0,0,0,1,0,0v30a33.15,33.15,0,0,1-33.15,33.15h0a0,0,0,0,1,0,0V282A0,0,0,0,1,247.25,282Z"/><path class="cls-7" d="M328.93,391.85h0a42.92,42.92,0,0,1,42.92,42.92V530a0,0,0,0,1,0,0h0a42.92,42.92,0,0,1-42.92-42.92V391.85a0,0,0,0,1,0,0Z"/><path class="cls-7" d="M490.52,431H895a0,0,0,0,1,0,0V538.73a92.08,92.08,0,0,1-92.08,92.08H582.6a92.08,92.08,0,0,1-92.08-92.08V431a0,0,0,0,1,0,0Z" transform="translate(1385.52 1061.83) rotate(-180)"/><path class="cls-6" d="M687.08,370.88h0a40.67,40.67,0,0,1,40.67,40.67v60a2.12,2.12,0,0,1-2.12,2.12H648.53a2.12,2.12,0,0,1-2.12-2.12v-60a40.67,40.67,0,0,1,40.67-40.67Z" transform="translate(1374.16 844.56) rotate(-180)"/><path class="cls-6" d="M603.68,269.26h92a32.05,32.05,0,0,1,32.05,32.05v60a32.05,32.05,0,0,1-32.05,32.05h-60a32.05,32.05,0,0,1-32.05-32.05v-92a0,0,0,0,1,0,0Z" transform="translate(1331.43 662.6) rotate(-180)"/><polygon class="cls-3" points="694.74 393.34 646.41 393.34 646.41 405.03 694.74 393.34 694.74 393.34"/><path class="cls-5" d="M677.2,253.1h50.55a0,0,0,0,1,0,0v92.3a0,0,0,0,1,0,0h-4a46.59,46.59,0,0,1-46.59-46.59V253.1a0,0,0,0,1,0,0Z" transform="translate(1404.96 598.5) rotate(-180)"/><path class="cls-6" d="M691.67,316.17h3.07a0,0,0,0,1,0,0V345.4a0,0,0,0,1,0,0h-7.42a10.11,10.11,0,0,1-10.11-10.11v-4.65A14.47,14.47,0,0,1,691.67,316.17Z" transform="translate(1371.95 661.57) rotate(-180)"/><path class="cls-5" d="M596.74,253.1h66a14.44,14.44,0,0,1,14.44,14.44v0A14.44,14.44,0,0,1,662.77,282h-66a0,0,0,0,1,0,0V253.1A0,0,0,0,1,596.74,253.1Z" transform="translate(1273.95 535.07) rotate(-180)"/><rect class="cls-5" x="644.92" y="429.68" width="84.33" height="200.64"/><path class="cls-4" d="M673,437.3h2.77A23.19,23.19,0,0,1,699,460.49v2.77a0,0,0,0,1,0,0H673a0,0,0,0,1,0,0v-26A0,0,0,0,1,673,437.3Z" transform="translate(-117.48 616.94) rotate(-45)"/><polygon class="cls-4" points="709.16 597.09 687.08 460.93 662.79 597.09 685.97 620.28 709.16 597.09"/><path class="cls-4" d="M103.16,630.17a404.93,404.93,0,0,0,97.77,157.36c158.8,158.8,416.27,158.8,575.07,0a404.92,404.92,0,0,0,97.77-157.36Z"/><rect class="cls-3" x="399.4" y="749.2" width="175.59" height="67.34"/><rect class="cls-3" x="427.73" y="733.02" width="25.61" height="16.17"/><rect class="cls-3" x="521.06" y="733.02" width="25.61" height="16.17" transform="translate(1067.72 1482.22) rotate(180)"/><rect class="cls-3" x="474.39" y="733.02" width="25.61" height="16.17"/><rect class="cls-5" x="327.29" y="749.2" width="175.59" height="67.34"/><rect class="cls-5" x="355.62" y="733.02" width="25.61" height="16.17"/><rect class="cls-5" x="448.95" y="733.02" width="25.61" height="16.17" transform="translate(923.51 1482.22) rotate(180)"/><rect class="cls-5" x="402.29" y="733.02" width="25.61" height="16.17"/><rect class="cls-3" x="494.92" y="683.48" width="175.59" height="67.34"/><rect class="cls-3" x="523.25" y="667.3" width="25.61" height="16.17"/><rect class="cls-3" x="616.58" y="667.3" width="25.61" height="16.17" transform="translate(1258.77 1350.78) rotate(180)"/><rect class="cls-3" x="569.92" y="667.3" width="25.61" height="16.17"/><rect class="cls-7" x="422.82" y="683.48" width="175.59" height="67.34"/><rect class="cls-7" x="451.14" y="667.3" width="25.61" height="16.17"/><rect class="cls-7" x="544.48" y="667.3" width="25.61" height="16.17" transform="translate(1114.56 1350.78) rotate(180)"/><rect class="cls-7" x="497.81" y="667.3" width="25.61" height="16.17"/></g></g></svg>