<?xml version="1.0" encoding="UTF-8" standalone="no"?>
<svg width="144px" height="35px" viewBox="0 0 144 35" version="1.1" xmlns="http://www.w3.org/2000/svg" xmlns:xlink="http://www.w3.org/1999/xlink">
    <!-- Generator: Sketch 3.6.1 (26313) - http://www.bohemiancoding.com/sketch -->
    <title>wmms</title>
    <desc>Created with Sketch.</desc>
    <defs></defs>
    <g id="Page-1" stroke="none" stroke-width="1" fill="none" fill-rule="evenodd">
        <g id="wmms" transform="translate(0.000000, -1.000000)">
            <path d="M136.9,1.2 L142.1,1.2 L142.1,11.6 L136.9,11.6 L136.9,1.2 L136.9,1.2 Z M127.9,6.4 L127.6,6.5 C127.6,6.5 129.4,8 129.4,8.1 C129.5,8.2 129.6,8.2 129.5,8.5 C129.4,8.8 129.3,9.1 129.3,9.1 C129.3,9.1 130.9,8.8 131.1,8.7 C131.3,8.7 131.4,8.7 131.4,8.9 C131.4,9.1 131.3,10.8 131.3,10.8 L131.8,10.8 C131.8,10.8 131.7,9 131.7,8.9 C131.7,8.7 131.8,8.7 132,8.7 C132.2,8.7 133.8,9.1 133.8,9.1 C133.8,9.1 133.7,8.7 133.6,8.5 C133.5,8.2 133.6,8.2 133.7,8.1 C133.8,8 135.5,6.5 135.5,6.5 L135.2,6.4 C135,6.3 135.1,6.2 135.1,6.1 C135.1,6 135.4,5 135.4,5 C135.4,5 134.6,5.2 134.5,5.2 C134.4,5.2 134.3,5.2 134.3,5.1 C134.3,5 134.1,4.6 134.1,4.6 C134.1,4.6 133.2,5.6 133.1,5.7 C132.9,5.9 132.7,5.7 132.8,5.5 C132.8,5.3 133.3,3.2 133.3,3.2 C133.3,3.2 132.8,3.5 132.6,3.6 C132.4,3.7 132.3,3.7 132.3,3.5 C132.2,3.3 131.6,2.2 131.6,2.1 C131.6,2.1 131,3.3 130.9,3.5 C130.8,3.7 130.7,3.7 130.6,3.6 C130.4,3.5 129.9,3.2 129.9,3.2 C129.9,3.2 130.4,5.3 130.4,5.5 C130.4,5.7 130.3,5.8 130.1,5.7 L129.1,4.6 C129.1,4.6 129,4.9 128.9,5 C128.9,5.1 128.8,5.2 128.7,5.1 C128.5,5.1 127.7,4.9 127.7,4.9 C127.7,4.9 128,5.9 128.1,6 C128.1,6.1 128.1,6.3 127.9,6.4 L127.9,6.4 Z M121.2,1.2 L126.4,1.2 L126.4,11.6 L121.2,11.6 L121.2,1.2 L121.2,1.2 Z" id="Shape" fill="#FF0000"></path>
            <path d="M143.2,32.4 C142.8,33.3 142,33.6 141.5,33.6 C140.9,33.6 139.1,33.5 139.1,28.8 L139.1,18.7 C139.1,15.6 136.7,13.1 130.5,13.1 C123.8,13.1 123.7,16.4 123.7,17.2 C123.6,18.1 124.1,19.1 125.8,19.1 C127.3,19.1 127.7,17.4 127.9,16.8 C128.1,16.1 128.2,14.1 130.9,14.1 C133.2,14.1 134.6,16.1 134.7,19 L134.7,20.1 L134.7,20.6 L134.7,20.6 L134.7,20.6 L134.7,20.7 C134.5,21.7 134,22.2 133.1,22.6 C131.9,23.2 128.4,23.7 128,23.8 C126.6,24.1 122.7,25.1 122.8,29.2 C122.9,33.2 126.9,34.6 129.7,34.5 C132.4,34.4 134,33.3 134.7,32.7 C135.1,32.4 135.1,32.4 135.4,32.8 C135.8,33.2 137.1,34.5 140.2,34.5 C143.4,34.5 143.8,33 144,32.5 C144.1,32.2 143.4,31.9 143.2,32.4 L143.2,32.4 Z M130.7,33.5 C127.9,33.5 127.2,31.2 127.2,30 C127.2,28.9 127.8,26.6 130.6,25 C130.6,25 131.9,24.2 134.4,23.2 L134.6,23.2 C134.6,23.2 134.7,23.3 134.7,23.4 L134.7,23.4 L134.7,23.4 L134.7,23.5 L134.7,23.5 L134.7,23.5 L134.7,23.6 L134.7,23.6 L134.7,23.6 L134.7,23.6 L134.7,27.8 C134.7,31.1 133.1,33.5 130.7,33.5 L130.7,33.5 Z M118.6,26 L118.6,2.1 C118.6,1.8 118.6,1 117.7,1 C116.8,1 110.8,1.3 110.4,1.4 C110,1.4 109.7,1.9 110.4,1.9 C111.1,2 114.3,2.2 114.3,7.5 L114.3,14.6 L114.3,14.8 C114.3,15 114.3,15.1 114.2,15.2 C114.1,15.4 114,15.3 113.7,15.1 C113.2,14.7 110.9,13.3 108,13.3 C103.3,13.3 97.5,16.7 97.5,23.7 C97.5,31.2 102.8,34.8 108.3,34.8 C111,34.8 112.9,33.6 113.6,33.2 C114.4,32.7 114.3,32.8 114.4,33.5 C114.5,34 114.4,35 115.8,34.9 C117.3,34.7 120.9,34.3 121.6,34.2 C122.3,33.9 122.1,33.5 121.5,33.4 C121.1,33.3 118.6,33.6 118.6,26 Z M109.1,33.7 C104.7,33.7 102.4,28.5 102.4,23.5 C102.4,18 105.5,14.3 108.8,14.5 C113.1,14.8 114.2,18.2 114.3,24.3 L114.3,25.6 C114.2,31.6 111.7,33.7 109.1,33.7 L109.1,33.7 Z M97.4,32.4 C97,33.3 96.2,33.6 95.7,33.6 C95.1,33.6 93.3,33.5 93.3,28.8 L93.3,18.7 C93.3,15.6 90.9,13.1 84.7,13.1 C78,13.1 77.9,16.4 77.9,17.2 C77.8,18.1 78.3,19.1 80,19.1 C81.5,19.1 81.9,17.4 82.1,16.8 C82.3,16.1 82.4,14.1 85.1,14.1 C87.4,14.1 88.9,16.1 88.9,19.1 L88.9,19.2 L88.9,19.4 L88.9,19.7 L88.9,20.1 C88.8,21.6 88.4,22.1 87.2,22.7 C86,23.3 82.5,23.8 82.1,23.9 C80.7,24.2 76.8,25.2 76.9,29.3 C77,33.3 81,34.7 83.8,34.6 C86.5,34.5 88.1,33.4 88.8,32.8 C89.2,32.5 89.2,32.5 89.5,32.9 C89.9,33.3 91.2,34.6 94.3,34.6 C97.5,34.6 97.9,33.1 98.1,32.6 C98.3,32.2 97.7,31.9 97.4,32.4 L97.4,32.4 Z M85,33.5 C82.2,33.5 81.5,31.2 81.5,30 C81.5,28.9 82.1,26.6 84.9,25 C84.9,25 86.2,24.2 88.7,23.2 L88.9,23.2 L88.9,23.3 L88.9,23.3 L88.9,23.3 L88.9,23.7 L88.9,23.6 C88.9,23.6 88.9,23.6 88.9,23.7 L88.9,27.9 C88.9,31.1 87.3,33.5 85,33.5 L85,33.5 Z M75.4,33.4 C74.6,33.2 73.2,32.3 73.2,27.9 L73.2,19.9 C73.2,18 73.4,13.1 65.9,13.1 C62,13.1 59.8,15.1 59.6,15.2 C59.3,15.5 59.1,15.6 59,15.1 C58.9,14.7 58.7,14.1 58.6,13.7 C58.5,13.4 58.3,13.1 57.6,13.2 C56.9,13.3 52.5,14 51.7,14.2 C51,14.4 51.2,14.7 51.7,14.8 C52.2,14.9 54.6,15.1 54.6,19.2 L54.6,27.8 C54.6,32.8 53.6,33.2 52.7,33.5 C51.5,33.8 52.1,34.2 52.6,34.2 L61.7,34.2 C62.3,34.2 62.6,33.6 61.4,33.4 C60.2,33.2 59.1,32.5 59.1,28.6 L59.1,23.1 C59.1,21 58.6,14.6 64.4,14.5 C68.5,14.4 68.9,17.8 68.9,20 L68.9,28.5 C68.9,32 67.9,33.1 66.7,33.3 C65.6,33.5 65.8,34 66.4,34 L75.7,34 C76.2,34.2 76.7,33.7 75.4,33.4 L75.4,33.4 Z M51.1,32.4 C50.7,33.3 49.9,33.6 49.4,33.6 C48.8,33.6 47,33.5 47,28.8 L47,18.7 C47,15.6 44.6,13.1 38.4,13.1 C31.7,13.1 31.6,16.4 31.6,17.2 C31.5,18.1 32,19.1 33.7,19.1 C35.2,19.1 35.6,17.4 35.8,16.8 C36,16.1 36.1,14.1 38.8,14.1 C41.1,14.1 42.5,16.1 42.6,19 L42.6,20.1 C42.6,20.3 42.6,20.5 42.5,20.6 L42.5,20.7 L42.5,20.7 C42.3,21.7 41.8,22.2 40.9,22.6 C39.7,23.2 36.2,23.7 35.8,23.8 C34.4,24.1 30.5,25.1 30.6,29.2 C30.7,33.2 34.7,34.6 37.5,34.5 C40.2,34.4 41.8,33.3 42.5,32.7 C42.9,32.4 42.9,32.4 43.2,32.8 C43.6,33.2 44.9,34.5 48,34.5 C51.2,34.5 51.6,33 51.8,32.5 C52,32.2 51.3,31.9 51.1,32.4 L51.1,32.4 Z M38.6,33.5 C35.8,33.5 35.1,31.2 35.1,30 C35.1,28.8 35.7,26.6 38.5,25 C38.5,25 39.8,24.2 42.3,23.2 L42.5,23.2 C42.5,23.2 42.6,23.3 42.6,23.4 L42.6,23.4 L42.6,23.4 L42.6,23.4 L42.6,23.6 L42.6,23.6 L42.6,23.6 L42.6,23.7 L42.6,23.7 L42.6,23.7 L42.6,23.7 L42.6,27.9 C42.6,31.1 41,33.5 38.6,33.5 L38.6,33.5 Z M29,24.8 C28,28 26.1,33.2 19.2,33.4 C12,33.5 7.7,28.6 7.5,19.5 C7.2,9.8 11.4,2.4 17.9,2.2 C25.2,2.1 27.8,10.8 27.9,12.1 C28,13.1 29.3,13 29.3,12 C29.3,11.5 28.7,2.9 28.5,1.9 C28.3,0.9 27.5,1.3 27.3,1.7 C27.2,2 27.4,1.4 27,2.3 C26.6,3.2 25.5,2.7 25.1,2.6 C23.9,2.1 21.6,0.9 17.9,1 C9.4,1.2 0.7,7.5 0.9,18.5 C1.1,29.2 9.7,35.2 17.7,35.1 C25,35 29.1,30.4 30.3,25.1 C30.7,23.8 29.4,23.5 29,24.8 L29,24.8 Z" id="Shape" fill="#FFFFFF"></path>
        </g>
    </g>
</svg>